<svg width="841" height="155" viewBox="0 0 841 155" fill="none" xmlns="http://www.w3.org/2000/svg">
<path fill-rule="evenodd" clip-rule="evenodd" d="M13.3811 107.881V53.9406L60.0824 80.8964V134.849L40.0766 123.305V123.295L13.3829 107.881H13.3811ZM68.9347 33.69L46.5386 46.6225L69.6607 59.9694L83.0127 67.6711V115.513H83.1634L94.2861 89.324L105.411 102.842V54.7471L92.0585 47.0352L68.9347 33.69ZM133.555 115.574V38.5254L70.1247 1.92456L66.7858 0L33.4212 19.2627H33.3886L0 38.5288V115.585L22.3961 128.509L33.3886 134.839H33.4195L63.3579 152.127L66.7876 154.101L133.555 115.574Z" fill="#020202"/>
<path d="M773.503 117.976V11.9683H791.847V56.7798L789.327 54.1191C791.1 49.5446 793.995 46.0904 798.009 43.7564C802.117 41.3291 806.878 40.1155 812.293 40.1155C817.894 40.1155 822.842 41.3291 827.136 43.7564C831.524 46.1837 834.932 49.5913 837.359 53.9791C839.786 58.2735 841 63.2681 841 68.9629V117.976H822.655V73.304C822.655 69.9432 822.002 67.0491 820.695 64.6218C819.388 62.1945 817.567 60.3274 815.233 59.0204C812.993 57.62 810.332 56.9198 807.251 56.9198C804.264 56.9198 801.603 57.62 799.269 59.0204C796.935 60.3274 795.115 62.1945 793.808 64.6218C792.501 67.0491 791.847 69.9432 791.847 73.304V117.976H773.503Z" fill="#020202"/>
<path d="M757.386 118.816C748.798 118.816 742.123 116.482 737.361 111.814C732.693 107.053 730.359 100.378 730.359 91.789V58.1803H717.196V41.7961H718.596C722.331 41.7961 725.225 40.8159 727.279 38.8554C729.333 36.8949 730.359 34.0474 730.359 30.3132V24.4316H748.704V41.7961H766.209V58.1803H748.704V90.8087C748.704 93.3294 749.124 95.4766 749.965 97.2504C750.898 99.0242 752.298 100.378 754.166 101.311C756.126 102.245 758.6 102.712 761.588 102.712C762.241 102.712 762.988 102.665 763.828 102.572C764.762 102.478 765.649 102.385 766.489 102.292V117.976C765.182 118.162 763.688 118.349 762.008 118.536C760.327 118.723 758.787 118.816 757.386 118.816Z" fill="#020202"/>
<path d="M694.377 117.975V41.7959H712.722V117.975H694.377Z" fill="#020202"/>
<path d="M572.009 117.976V41.7962H589.234V59.4407L587.273 56.4999C588.674 50.9919 591.474 46.8841 595.676 44.1768C599.877 41.4694 604.825 40.1157 610.519 40.1157C616.774 40.1157 622.282 41.7495 627.044 45.017C631.805 48.2845 634.886 52.5789 636.286 57.9003L631.105 58.3204C633.439 52.2522 636.939 47.7244 641.607 44.7369C646.275 41.6561 651.643 40.1157 657.711 40.1157C663.126 40.1157 667.934 41.3294 672.135 43.7567C676.43 46.184 679.79 49.5915 682.218 53.9793C684.645 58.2737 685.859 63.2683 685.859 68.9631V117.976H667.514V73.3043C667.514 69.9434 666.907 67.0493 665.694 64.622C664.48 62.1947 662.799 60.3276 660.652 59.0206C658.505 57.6202 655.891 56.92 652.81 56.92C649.916 56.92 647.349 57.6202 645.108 59.0206C642.868 60.3276 641.141 62.1947 639.927 64.622C638.713 67.0493 638.106 69.9434 638.106 73.3043V117.976H619.762V73.3043C619.762 69.9434 619.155 67.0493 617.941 64.622C616.728 62.1947 615 60.3276 612.76 59.0206C610.613 57.6202 608.045 56.92 605.058 56.92C602.164 56.92 599.597 57.6202 597.356 59.0206C595.115 60.3276 593.388 62.1947 592.175 64.622C590.961 67.0493 590.354 69.9434 590.354 73.3043V117.976H572.009Z" fill="#020202"/>
<path d="M536.066 119.656C527.944 119.656 520.849 117.742 514.781 113.915C508.806 109.994 504.698 104.719 502.458 98.0906L516.181 91.5089C518.142 95.8034 520.849 99.1642 524.303 101.592C527.851 104.019 531.772 105.232 536.066 105.232C539.427 105.232 542.088 104.486 544.048 102.992C546.009 101.498 546.989 99.5377 546.989 97.1104C546.989 95.6167 546.569 94.403 545.729 93.4694C544.982 92.4425 543.908 91.6023 542.508 90.9488C541.201 90.2019 539.754 89.5951 538.167 89.1283L525.703 85.6274C519.262 83.7603 514.361 80.9129 511 77.0852C507.732 73.2576 506.098 68.7297 506.098 63.5017C506.098 58.8339 507.265 54.7728 509.599 51.3186C512.027 47.771 515.341 45.017 519.542 43.0565C523.836 41.096 528.738 40.1157 534.246 40.1157C541.434 40.1157 547.782 41.8428 553.291 45.2971C558.799 48.7513 562.72 53.6059 565.054 59.8608L551.05 66.4425C549.743 62.9883 547.549 60.2342 544.468 58.1804C541.388 56.1265 537.933 55.0996 534.106 55.0996C531.025 55.0996 528.598 55.7998 526.824 57.2001C525.05 58.6005 524.163 60.4209 524.163 62.6615C524.163 64.0619 524.537 65.2755 525.283 66.3025C526.03 67.3294 527.057 68.1696 528.364 68.8231C529.765 69.4766 531.352 70.0834 533.125 70.6436L545.309 74.2845C551.563 76.1517 556.371 78.9524 559.732 82.6867C563.186 86.421 564.914 90.9955 564.914 96.4102C564.914 100.985 563.7 105.046 561.273 108.593C558.845 112.048 555.484 114.755 551.19 116.715C546.896 118.676 541.854 119.656 536.066 119.656Z" fill="#020202"/>
<path d="M433.259 117.976V27.3357L447.293 11.9683H451.604V81.4261L444.602 79.3256L480.451 41.7959H503.277L475.13 72.4638L503.837 117.976H482.832L457.905 78.4854L468.828 76.2448L445.862 100.891L451.604 89.6882V117.976H433.259Z" fill="#020202"/>
<path d="M391.753 119.656C384.191 119.656 377.375 117.929 371.307 114.475C365.332 110.927 360.618 106.166 357.164 100.191C353.709 94.1229 351.982 87.3079 351.982 79.7459C351.982 72.184 353.709 65.4156 357.164 59.4407C360.618 53.4658 365.332 48.7513 371.307 45.2971C377.375 41.8428 384.191 40.1157 391.753 40.1157C397.167 40.1157 402.209 41.096 406.876 43.0565C411.544 44.9236 415.559 47.5376 418.92 50.8985C422.374 54.166 424.848 58.087 426.341 62.6615L410.237 69.6633C408.837 65.8357 406.456 62.7549 403.095 60.4209C399.828 58.087 396.047 56.92 391.753 56.92C387.738 56.92 384.144 57.9003 380.97 59.8608C377.889 61.8213 375.462 64.5287 373.688 67.9829C371.914 71.4371 371.027 75.4048 371.027 79.8859C371.027 84.3671 371.914 88.3348 373.688 91.789C375.462 95.2432 377.889 97.9506 380.97 99.9111C384.144 101.872 387.738 102.852 391.753 102.852C396.14 102.852 399.968 101.685 403.235 99.351C406.503 97.017 408.837 93.8896 410.237 89.9685L426.341 97.2504C424.848 101.545 422.42 105.419 419.06 108.873C415.699 112.234 411.684 114.895 407.016 116.855C402.349 118.723 397.261 119.656 391.753 119.656Z" fill="#020202"/>
<path d="M307.963 119.656C300.494 119.656 293.679 117.929 287.518 114.475C281.449 111.021 276.595 106.306 272.954 100.331C269.406 94.3563 267.632 87.5412 267.632 79.8859C267.632 72.2306 269.406 65.4156 272.954 59.4407C276.595 53.4658 281.449 48.7513 287.518 45.2971C293.586 41.8428 300.401 40.1157 307.963 40.1157C315.431 40.1157 322.2 41.8428 328.268 45.2971C334.336 48.7513 339.144 53.4658 342.692 59.4407C346.333 65.3222 348.153 72.1373 348.153 79.8859C348.153 87.5412 346.333 94.3563 342.692 100.331C339.051 106.306 334.196 111.021 328.128 114.475C322.06 117.929 315.338 119.656 307.963 119.656ZM307.963 102.852C312.071 102.852 315.665 101.872 318.746 99.9111C321.92 97.9506 324.394 95.2432 326.168 91.789C328.035 88.2414 328.968 84.2737 328.968 79.8859C328.968 75.4048 328.035 71.4838 326.168 68.1229C324.394 64.6687 321.92 61.9613 318.746 60.0008C315.665 57.947 312.071 56.92 307.963 56.92C303.762 56.92 300.074 57.947 296.9 60.0008C293.726 61.9613 291.205 64.6687 289.338 68.1229C287.564 71.4838 286.677 75.4048 286.677 79.8859C286.677 84.2737 287.564 88.2414 289.338 91.789C291.205 95.2432 293.726 97.9506 296.9 99.9111C300.074 101.872 303.762 102.852 307.963 102.852Z" fill="#020202"/>
<path d="M255.281 118.816C246.692 118.816 240.017 116.482 235.256 111.814C230.588 107.053 228.254 100.378 228.254 91.789V58.1803H215.091V41.7961H216.491C220.225 41.7961 223.119 40.8159 225.173 38.8554C227.227 36.8949 228.254 34.0474 228.254 30.3132V24.4316H246.599V41.7961H264.103V58.1803H246.599V90.8087C246.599 93.3294 247.019 95.4766 247.859 97.2504C248.793 99.0242 250.193 100.378 252.06 101.311C254.021 102.245 256.494 102.712 259.482 102.712C260.135 102.712 260.882 102.665 261.723 102.572C262.656 102.478 263.543 102.385 264.383 102.292V117.976C263.076 118.162 261.582 118.349 259.902 118.536C258.222 118.723 256.681 118.816 255.281 118.816Z" fill="#020202"/>
<path d="M184.609 119.656C176.487 119.656 169.391 117.742 163.323 113.915C157.348 109.994 153.241 104.719 151 98.0906L164.724 91.5089C166.684 95.8034 169.391 99.1642 172.846 101.592C176.393 104.019 180.314 105.232 184.609 105.232C187.97 105.232 190.63 104.486 192.591 102.992C194.551 101.498 195.531 99.5377 195.531 97.1104C195.531 95.6167 195.111 94.403 194.271 93.4694C193.524 92.4425 192.451 91.6023 191.05 90.9488C189.743 90.2019 188.296 89.5951 186.709 89.1283L174.246 85.6274C167.804 83.7603 162.903 80.9129 159.542 77.0852C156.275 73.2576 154.641 68.7297 154.641 63.5017C154.641 58.8339 155.808 54.7728 158.142 51.3186C160.569 47.771 163.883 45.017 168.084 43.0565C172.379 41.096 177.28 40.1157 182.788 40.1157C189.977 40.1157 196.325 41.8428 201.833 45.2971C207.341 48.7513 211.262 53.6059 213.596 59.8608L199.592 66.4425C198.285 62.9883 196.092 60.2342 193.011 58.1804C189.93 56.1265 186.476 55.0996 182.648 55.0996C179.567 55.0996 177.14 55.7998 175.366 57.2001C173.592 58.6005 172.706 60.4209 172.706 62.6615C172.706 64.0619 173.079 65.2755 173.826 66.3025C174.573 67.3294 175.6 68.1696 176.907 68.8231C178.307 69.4766 179.894 70.0834 181.668 70.6436L193.851 74.2845C200.106 76.1517 204.914 78.9524 208.275 82.6867C211.729 86.421 213.456 90.9955 213.456 96.4102C213.456 100.985 212.242 105.046 209.815 108.593C207.388 112.048 204.027 114.755 199.733 116.715C195.438 118.676 190.397 119.656 184.609 119.656Z" fill="#020202"/>
<path d="M701.933 37.4069C701.575 35.2962 700.634 33.0232 699.108 30.5879C697.582 28.12 695.406 25.8308 692.581 23.7203C689.789 21.6097 686.995 20.2621 684.203 19.6775V17.632C686.964 16.9824 689.609 15.7811 692.143 14.0276C694.707 12.2416 696.851 10.0985 698.572 7.59823C700.326 5.03302 701.445 2.50043 701.933 0H703.978C704.27 1.62346 704.855 3.29585 705.732 5.01686C706.609 6.70526 707.729 8.32887 709.092 9.88754C710.488 11.4137 712.048 12.7936 713.768 14.0276C716.334 15.846 718.947 17.0474 721.61 17.632V19.6775C719.824 20.0347 717.973 20.7654 716.058 21.8694C714.174 22.9734 712.422 24.2884 710.797 25.8146C709.173 27.3084 707.843 28.8832 706.803 30.5393C705.277 32.9746 704.336 35.2638 703.978 37.4069H701.933Z" fill="#EE8F38"/>
</svg>
